<svg xmlns="http://www.w3.org/2000/svg" viewBox="0 0 96 96" fill="none" stroke-linecap="round" stroke-linejoin="round">
  <!-- Canopy: large central circle + side arm extensions (all same color = unified blob) -->
  <circle cx="48" cy="32" r="28" fill="#365F4B"/>
  <ellipse cx="22" cy="40" rx="13" ry="9" fill="#365F4B"/>
  <ellipse cx="74" cy="40" rx="13" ry="9" fill="#365F4B"/>
  <!-- Trunk -->
  <path d="M41,58 L40,82 L56,82 L55,58 Z" fill="#1F2523"/>
  <!-- Trunk face: sleepy ∪ eyes -->
  <path d="M43 67 Q 45 69 47 67" stroke="#F3F0EA" stroke-width="1.4" fill="none"/>
  <path d="M49 67 Q 51 69 53 67" stroke="#F3F0EA" stroke-width="1.4" fill="none"/>
  <!-- Trunk face: smile -->
  <path d="M44 72 Q 48 75 52 72" stroke="#F3F0EA" stroke-width="1.2" fill="none"/>
  <!-- Orange butterfly (lower right of trunk) -->
  <path d="M67,71 C71,65 77,67 75,71 C73,75 67,74 67,71 Z" fill="#C83A2B" opacity="0.9"/>
  <path d="M67,71 C63,67 59,69 61,73 C63,77 67,74 67,71 Z" fill="#C83A2B" opacity="0.9"/>
</svg>
